STARTFONT 2.1
FONT -FontForge-bigbit-Medium-R-Normal--9-90-75-75-P-30-ISO10646-1
SIZE 9 75 75
FONTBOUNDINGBOX 5 8 0 -2
COMMENT "Generated by fontforge, http://fontforge.sourceforge.net"
COMMENT "DiegoCelayeta"
STARTPROPERTIES 39
FOUNDRY "FontForge"
FAMILY_NAME "bigbit"
WEIGHT_NAME "Medium"
SLANT "R"
SETWIDTH_NAME "Normal"
ADD_STYLE_NAME ""
PIXEL_SIZE 9
POINT_SIZE 90
RESOLUTION_X 75
RESOLUTION_Y 75
SPACING "P"
AVERAGE_WIDTH 30
CHARSET_REGISTRY "ISO10646"
CHARSET_ENCODING "1"
FONTNAME_REGISTRY ""
CHARSET_COLLECTIONS "ISO10646-1"
FONT_NAME "bigbit"
FACE_NAME "bigbit"
COPYRIGHT "DiegoCelayeta"
FONT_VERSION "001.000"
FONT_ASCENT 7
FONT_DESCENT 2
UNDERLINE_POSITION -1
UNDERLINE_THICKNESS 1
X_HEIGHT 3
CAP_HEIGHT 4
RAW_ASCENT 750
RAW_DESCENT 250
NORM_SPACE 3
RELATIVE_WEIGHT 50
RELATIVE_SETWIDTH 50
SUPERSCRIPT_X 0
SUPERSCRIPT_Y 4
SUPERSCRIPT_SIZE 6
SUBSCRIPT_X 0
SUBSCRIPT_Y 1
SUBSCRIPT_SIZE 6
AVG_LOWERCASE_WIDTH 28
AVG_UPPERCASE_WIDTH 39
ENDPROPERTIES
CHARS 85
STARTCHAR space
ENCODING 32
SWIDTH 312 0
DWIDTH 3 0
BBX 1 1 0 0
BITMAP
00
ENDCHAR
STARTCHAR exclam
ENCODING 33
SWIDTH 125 0
DWIDTH 1 0
BBX 1 5 0 0
BITMAP
80
80
80
80
80
ENDCHAR
STARTCHAR quotedbl
ENCODING 34
SWIDTH 250 0
DWIDTH 2 0
BBX 2 2 0 3
BITMAP
C0
C0
ENDCHAR
STARTCHAR numbersign
ENCODING 35
SWIDTH 375 0
DWIDTH 3 0
BBX 3 3 0 1
BITMAP
E0
00
E0
ENDCHAR
STARTCHAR dollar
ENCODING 36
SWIDTH 375 0
DWIDTH 3 0
BBX 3 5 0 0
BITMAP
40
E0
40
E0
40
ENDCHAR
STARTCHAR percent
ENCODING 37
SWIDTH 625 0
DWIDTH 6 0
BBX 5 5 0 0
BITMAP
C8
90
20
48
98
ENDCHAR
STARTCHAR quotesingle
ENCODING 39
SWIDTH 125 0
DWIDTH 1 0
BBX 1 2 0 3
BITMAP
80
80
ENDCHAR
STARTCHAR parenleft
ENCODING 40
SWIDTH 250 0
DWIDTH 2 0
BBX 2 7 0 -1
BITMAP
40
00
80
80
80
00
40
ENDCHAR
STARTCHAR parenright
ENCODING 41
SWIDTH 250 0
DWIDTH 2 0
BBX 2 7 0 -1
BITMAP
80
00
40
40
40
00
80
ENDCHAR
STARTCHAR asterisk
ENCODING 42
SWIDTH 375 0
DWIDTH 3 0
BBX 3 2 0 3
BITMAP
E0
40
ENDCHAR
STARTCHAR plus
ENCODING 43
SWIDTH 375 0
DWIDTH 3 0
BBX 3 3 0 1
BITMAP
40
E0
40
ENDCHAR
STARTCHAR comma
ENCODING 44
SWIDTH 125 0
DWIDTH 1 0
BBX 1 2 0 -1
BITMAP
80
80
ENDCHAR
STARTCHAR hyphen
ENCODING 45
SWIDTH 250 0
DWIDTH 2 0
BBX 2 1 0 2
BITMAP
C0
ENDCHAR
STARTCHAR period
ENCODING 46
SWIDTH 125 0
DWIDTH 1 0
BBX 1 1 0 0
BITMAP
80
ENDCHAR
STARTCHAR slash
ENCODING 47
SWIDTH 375 0
DWIDTH 3 0
BBX 3 6 0 0
BITMAP
20
20
00
40
00
80
ENDCHAR
STARTCHAR zero
ENCODING 48
SWIDTH 375 0
DWIDTH 3 0
BBX 3 5 0 0
BITMAP
E0
A0
E0
A0
40
ENDCHAR
STARTCHAR one
ENCODING 49
SWIDTH 250 0
DWIDTH 2 0
BBX 2 5 0 0
BITMAP
80
00
00
00
C0
ENDCHAR
STARTCHAR two
ENCODING 50
SWIDTH 375 0
DWIDTH 3 0
BBX 3 5 0 0
BITMAP
E0
20
00
00
E0
ENDCHAR
STARTCHAR three
ENCODING 51
SWIDTH 375 0
DWIDTH 3 0
BBX 3 5 0 0
BITMAP
E0
20
40
20
40
ENDCHAR
STARTCHAR four
ENCODING 52
SWIDTH 375 0
DWIDTH 3 0
BBX 3 5 0 0
BITMAP
A0
A0
20
20
20
ENDCHAR
STARTCHAR five
ENCODING 53
SWIDTH 375 0
DWIDTH 3 0
BBX 3 5 0 0
BITMAP
E0
80
C0
20
40
ENDCHAR
STARTCHAR six
ENCODING 54
SWIDTH 375 0
DWIDTH 3 0
BBX 3 5 0 0
BITMAP
E0
80
C0
A0
40
ENDCHAR
STARTCHAR seven
ENCODING 55
SWIDTH 375 0
DWIDTH 3 0
BBX 3 4 0 1
BITMAP
E0
20
00
40
ENDCHAR
STARTCHAR eight
ENCODING 56
SWIDTH 375 0
DWIDTH 3 0
BBX 3 5 0 0
BITMAP
E0
A0
40
A0
40
ENDCHAR
STARTCHAR nine
ENCODING 57
SWIDTH 375 0
DWIDTH 3 0
BBX 3 5 0 0
BITMAP
E0
A0
60
20
20
ENDCHAR
STARTCHAR colon
ENCODING 58
SWIDTH 125 0
DWIDTH 1 0
BBX 1 3 0 0
BITMAP
80
00
80
ENDCHAR
STARTCHAR semicolon
ENCODING 59
SWIDTH 125 0
DWIDTH 1 0
BBX 1 4 0 -1
BITMAP
80
00
80
80
ENDCHAR
STARTCHAR question
ENCODING 63
SWIDTH 375 0
DWIDTH 3 0
BBX 3 5 0 0
BITMAP
E0
20
00
40
40
ENDCHAR
STARTCHAR at
ENCODING 64
SWIDTH 437 0
DWIDTH 4 0
BBX 3 5 0 0
BITMAP
E0
80
C0
E0
60
ENDCHAR
STARTCHAR A
ENCODING 65
SWIDTH 437 0
DWIDTH 4 0
BBX 3 5 0 0
BITMAP
60
80
E0
80
80
ENDCHAR
STARTCHAR B
ENCODING 66
SWIDTH 437 0
DWIDTH 4 0
BBX 3 5 0 0
BITMAP
E0
80
E0
80
E0
ENDCHAR
STARTCHAR C
ENCODING 67
SWIDTH 437 0
DWIDTH 4 0
BBX 3 5 0 0
BITMAP
E0
80
80
80
60
ENDCHAR
STARTCHAR D
ENCODING 68
SWIDTH 437 0
DWIDTH 4 0
BBX 3 5 0 0
BITMAP
E0
80
80
80
C0
ENDCHAR
STARTCHAR E
ENCODING 69
SWIDTH 437 0
DWIDTH 4 0
BBX 3 5 0 0
BITMAP
E0
80
E0
80
E0
ENDCHAR
STARTCHAR F
ENCODING 70
SWIDTH 437 0
DWIDTH 4 0
BBX 3 5 0 0
BITMAP
E0
80
C0
80
80
ENDCHAR
STARTCHAR G
ENCODING 71
SWIDTH 437 0
DWIDTH 4 0
BBX 3 5 0 0
BITMAP
E0
80
80
80
60
ENDCHAR
STARTCHAR H
ENCODING 72
SWIDTH 437 0
DWIDTH 4 0
BBX 3 5 0 0
BITMAP
80
80
E0
80
80
ENDCHAR
STARTCHAR I
ENCODING 73
SWIDTH 375 0
DWIDTH 3 0
BBX 3 5 0 0
BITMAP
E0
40
40
40
E0
ENDCHAR
STARTCHAR J
ENCODING 74
SWIDTH 375 0
DWIDTH 3 0
BBX 3 5 0 0
BITMAP
60
00
00
80
40
ENDCHAR
STARTCHAR K
ENCODING 75
SWIDTH 437 0
DWIDTH 4 0
BBX 3 5 0 0
BITMAP
A0
80
80
80
80
ENDCHAR
STARTCHAR L
ENCODING 76
SWIDTH 437 0
DWIDTH 4 0
BBX 3 5 0 0
BITMAP
80
80
80
80
E0
ENDCHAR
STARTCHAR M
ENCODING 77
SWIDTH 437 0
DWIDTH 4 0
BBX 3 5 0 0
BITMAP
A0
C0
80
80
80
ENDCHAR
STARTCHAR N
ENCODING 78
SWIDTH 437 0
DWIDTH 4 0
BBX 3 5 0 0
BITMAP
80
80
C0
80
A0
ENDCHAR
STARTCHAR O
ENCODING 79
SWIDTH 437 0
DWIDTH 4 0
BBX 3 5 0 0
BITMAP
E0
80
80
80
60
ENDCHAR
STARTCHAR P
ENCODING 80
SWIDTH 437 0
DWIDTH 4 0
BBX 3 5 0 0
BITMAP
E0
80
80
80
80
ENDCHAR
STARTCHAR Q
ENCODING 81
SWIDTH 437 0
DWIDTH 4 0
BBX 3 5 0 0
BITMAP
E0
80
80
80
40
ENDCHAR
STARTCHAR R
ENCODING 82
SWIDTH 437 0
DWIDTH 4 0
BBX 3 5 0 0
BITMAP
E0
80
80
80
80
ENDCHAR
STARTCHAR S
ENCODING 83
SWIDTH 437 0
DWIDTH 4 0
BBX 3 5 0 0
BITMAP
E0
80
60
00
60
ENDCHAR
STARTCHAR T
ENCODING 84
SWIDTH 375 0
DWIDTH 3 0
BBX 3 5 0 0
BITMAP
E0
40
40
40
40
ENDCHAR
STARTCHAR U
ENCODING 85
SWIDTH 437 0
DWIDTH 4 0
BBX 3 5 0 0
BITMAP
80
80
80
80
60
ENDCHAR
STARTCHAR V
ENCODING 86
SWIDTH 437 0
DWIDTH 4 0
BBX 3 5 0 0
BITMAP
80
80
20
20
40
ENDCHAR
STARTCHAR W
ENCODING 87
SWIDTH 500 0
DWIDTH 5 0
BBX 4 5 0 0
BITMAP
90
90
90
90
60
ENDCHAR
STARTCHAR X
ENCODING 88
SWIDTH 437 0
DWIDTH 4 0
BBX 3 5 0 0
BITMAP
80
20
40
20
80
ENDCHAR
STARTCHAR Y
ENCODING 89
SWIDTH 500 0
DWIDTH 5 0
BBX 4 2 0 3
BITMAP
90
60
ENDCHAR
STARTCHAR Z
ENCODING 90
SWIDTH 437 0
DWIDTH 4 0
BBX 3 5 0 0
BITMAP
E0
20
40
00
E0
ENDCHAR
STARTCHAR bracketleft
ENCODING 91
SWIDTH 250 0
DWIDTH 2 0
BBX 1 7 0 -1
BITMAP
80
80
80
80
80
80
80
ENDCHAR
STARTCHAR backslash
ENCODING 92
SWIDTH 375 0
DWIDTH 3 0
BBX 3 6 0 0
BITMAP
80
80
00
40
00
20
ENDCHAR
STARTCHAR bracketright
ENCODING 93
SWIDTH 250 0
DWIDTH 2 0
BBX 1 7 1 -1
BITMAP
80
80
80
80
80
80
80
ENDCHAR
STARTCHAR a
ENCODING 97
SWIDTH 375 0
DWIDTH 3 0
BBX 3 4 0 0
BITMAP
40
20
A0
40
ENDCHAR
STARTCHAR b
ENCODING 98
SWIDTH 375 0
DWIDTH 3 0
BBX 3 5 0 0
BITMAP
80
80
C0
A0
C0
ENDCHAR
STARTCHAR c
ENCODING 99
SWIDTH 375 0
DWIDTH 3 0
BBX 2 4 0 0
BITMAP
40
80
80
40
ENDCHAR
STARTCHAR d
ENCODING 100
SWIDTH 375 0
DWIDTH 3 0
BBX 3 5 0 0
BITMAP
20
20
60
A0
60
ENDCHAR
STARTCHAR e
ENCODING 101
SWIDTH 375 0
DWIDTH 3 0
BBX 3 4 0 0
BITMAP
40
A0
80
40
ENDCHAR
STARTCHAR f
ENCODING 102
SWIDTH 375 0
DWIDTH 3 0
BBX 2 1 1 4
BITMAP
C0
ENDCHAR
STARTCHAR g
ENCODING 103
SWIDTH 375 0
DWIDTH 3 0
BBX 3 5 0 -2
BITMAP
60
A0
60
20
A0
ENDCHAR
STARTCHAR h
ENCODING 104
SWIDTH 375 0
DWIDTH 3 0
BBX 3 5 0 0
BITMAP
80
80
C0
A0
A0
ENDCHAR
STARTCHAR i
ENCODING 105
SWIDTH 125 0
DWIDTH 1 0
BBX 1 4 0 0
BITMAP
80
80
80
80
ENDCHAR
STARTCHAR j
ENCODING 106
SWIDTH 375 0
DWIDTH 3 0
BBX 3 5 0 -2
BITMAP
60
00
00
00
80
ENDCHAR
STARTCHAR k
ENCODING 107
SWIDTH 375 0
DWIDTH 3 0
BBX 3 5 0 0
BITMAP
80
80
C0
C0
A0
ENDCHAR
STARTCHAR l
ENCODING 108
SWIDTH 125 0
DWIDTH 1 0
BBX 1 5 0 0
BITMAP
80
80
80
80
80
ENDCHAR
STARTCHAR m
ENCODING 109
SWIDTH 375 0
DWIDTH 3 0
BBX 3 3 0 0
BITMAP
E0
E0
E0
ENDCHAR
STARTCHAR n
ENCODING 110
SWIDTH 375 0
DWIDTH 3 0
BBX 3 4 0 0
BITMAP
C0
A0
A0
A0
ENDCHAR
STARTCHAR o
ENCODING 111
SWIDTH 375 0
DWIDTH 3 0
BBX 3 4 0 0
BITMAP
40
A0
A0
40
ENDCHAR
STARTCHAR p
ENCODING 112
SWIDTH 375 0
DWIDTH 3 0
BBX 3 5 0 -2
BITMAP
40
A0
C0
80
80
ENDCHAR
STARTCHAR q
ENCODING 113
SWIDTH 375 0
DWIDTH 3 0
BBX 3 5 0 -2
BITMAP
40
A0
60
20
20
ENDCHAR
STARTCHAR r
ENCODING 114
SWIDTH 375 0
DWIDTH 3 0
BBX 3 3 0 0
BITMAP
A0
80
80
ENDCHAR
STARTCHAR s
ENCODING 115
SWIDTH 375 0
DWIDTH 3 0
BBX 3 4 0 0
BITMAP
40
80
20
40
ENDCHAR
STARTCHAR t
ENCODING 116
SWIDTH 375 0
DWIDTH 3 0
BBX 3 5 0 0
BITMAP
40
E0
40
40
40
ENDCHAR
STARTCHAR u
ENCODING 117
SWIDTH 375 0
DWIDTH 3 0
BBX 3 4 0 0
BITMAP
A0
A0
A0
40
ENDCHAR
STARTCHAR v
ENCODING 118
SWIDTH 375 0
DWIDTH 3 0
BBX 3 4 0 0
BITMAP
A0
A0
00
40
ENDCHAR
STARTCHAR w
ENCODING 119
SWIDTH 375 0
DWIDTH 3 0
BBX 3 3 0 1
BITMAP
A0
E0
E0
ENDCHAR
STARTCHAR x
ENCODING 120
SWIDTH 375 0
DWIDTH 3 0
BBX 3 4 0 0
BITMAP
A0
00
00
A0
ENDCHAR
STARTCHAR y
ENCODING 121
SWIDTH 375 0
DWIDTH 3 0
BBX 3 5 0 -2
BITMAP
A0
A0
40
40
40
ENDCHAR
STARTCHAR z
ENCODING 122
SWIDTH 375 0
DWIDTH 3 0
BBX 3 4 0 0
BITMAP
E0
00
00
E0
ENDCHAR
STARTCHAR degree
ENCODING 176
SWIDTH 312 0
DWIDTH 3 0
BBX 2 2 0 3
BITMAP
C0
80
ENDCHAR
ENDFONT
